<?xml version="1.0" standalone="no"?><!DOCTYPE svg PUBLIC "-//W3C//DTD SVG 1.1//EN" "http://www.w3.org/Graphics/SVG/1.1/DTD/svg11.dtd"><svg t="1591706460926" class="icon" viewBox="0 0 1024 1024" version="1.1" xmlns="http://www.w3.org/2000/svg" p-id="3473" xmlns:xlink="http://www.w3.org/1999/xlink" width="200" height="200"><defs><style type="text/css"></style></defs><path d="M512 832c-37.376 0-73.472-4.352-108.16-11.776l-150.656 90.56 2.048-148.48C139.712 692.928 64 578.112 64 448c0-212.096 200.576-384 448-384s448 171.904 448 384S759.424 832 512 832L512 832zM512 0c-282.752 0-512 200.64-512 448 0 141.44 75.072 267.328 192 349.44L192 1024l224.32-136.064c31.04 5.12 62.976 8.064 95.68 8.064 282.752 0 512-200.576 512-448C1024 200.64 794.752 0 512 0L512 0zM736 352l-448 0c-17.664 0-32 14.336-32 32s14.336 32 32 32l448 0c17.664 0 32-14.336 32-32S753.664 352 736 352L736 352zM672 544l-320 0c-17.664 0-32 14.336-32 32s14.336 32 32 32l320 0c17.664 0 32-14.336 32-32S689.664 544 672 544L672 544z" p-id="3474"></path></svg>